<svg aria-roledescription="flowchart-v2" role="graphics-document document" viewBox="-7.5 -8 1882.24609375 890.203125" style="max-width: 1882.24609375px;" xmlns="http://www.w3.org/2000/svg" width="100%" id="mermaid-svg-1766168120089-ln5r07oau"><style>#mermaid-svg-1766168120089-ln5r07oau{font-family:"trebuchet ms",verdana,arial,sans-serif;font-size:16px;fill:#cccccc;}#mermaid-svg-1766168120089-ln5r07oau .error-icon{fill:#5a1d1d;}#mermaid-svg-1766168120089-ln5r07oau .error-text{fill:#f85149;stroke:#f85149;}#mermaid-svg-1766168120089-ln5r07oau .edge-thickness-normal{stroke-width:2px;}#mermaid-svg-1766168120089-ln5r07oau .edge-thickness-thick{stroke-width:3.5px;}#mermaid-svg-1766168120089-ln5r07oau .edge-pattern-solid{stroke-dasharray:0;}#mermaid-svg-1766168120089-ln5r07oau .edge-pattern-dashed{stroke-dasharray:3;}#mermaid-svg-1766168120089-ln5r07oau .edge-pattern-dotted{stroke-dasharray:2;}#mermaid-svg-1766168120089-ln5r07oau .marker{fill:#9d9d9d;stroke:#9d9d9d;}#mermaid-svg-1766168120089-ln5r07oau .marker.cross{stroke:#9d9d9d;}#mermaid-svg-1766168120089-ln5r07oau svg{font-family:"trebuchet ms",verdana,arial,sans-serif;font-size:16px;}#mermaid-svg-1766168120089-ln5r07oau .label{font-family:"trebuchet ms",verdana,arial,sans-serif;color:#cccccc;}#mermaid-svg-1766168120089-ln5r07oau .cluster-label text{fill:#cccccc;}#mermaid-svg-1766168120089-ln5r07oau .cluster-label span,#mermaid-svg-1766168120089-ln5r07oau p{color:#cccccc;}#mermaid-svg-1766168120089-ln5r07oau .label text,#mermaid-svg-1766168120089-ln5r07oau span,#mermaid-svg-1766168120089-ln5r07oau p{fill:#cccccc;color:#cccccc;}#mermaid-svg-1766168120089-ln5r07oau .node rect,#mermaid-svg-1766168120089-ln5r07oau .node circle,#mermaid-svg-1766168120089-ln5r07oau .node ellipse,#mermaid-svg-1766168120089-ln5r07oau .node polygon,#mermaid-svg-1766168120089-ln5r07oau .node path{fill:#1f1f1f;stroke:#454545;stroke-width:1px;}#mermaid-svg-1766168120089-ln5r07oau .flowchart-label text{text-anchor:middle;}#mermaid-svg-1766168120089-ln5r07oau .node .label{text-align:center;}#mermaid-svg-1766168120089-ln5r07oau .node.clickable{cursor:pointer;}#mermaid-svg-1766168120089-ln5r07oau .arrowheadPath{fill:#e0e0e0;}#mermaid-svg-1766168120089-ln5r07oau .edgePath .path{stroke:#9d9d9d;stroke-width:2.0px;}#mermaid-svg-1766168120089-ln5r07oau .flowchart-link{stroke:#9d9d9d;fill:none;}#mermaid-svg-1766168120089-ln5r07oau .edgeLabel{background-color:#1f1f1f99;text-align:center;}#mermaid-svg-1766168120089-ln5r07oau .edgeLabel rect{opacity:0.5;background-color:#1f1f1f99;fill:#1f1f1f99;}#mermaid-svg-1766168120089-ln5r07oau .labelBkg{background-color:rgba(31, 31, 31, 0.5);}#mermaid-svg-1766168120089-ln5r07oau .cluster rect{fill:#3a3d41;stroke:#454545;stroke-width:1px;}#mermaid-svg-1766168120089-ln5r07oau .cluster text{fill:#cccccc;}#mermaid-svg-1766168120089-ln5r07oau .cluster span,#mermaid-svg-1766168120089-ln5r07oau p{color:#cccccc;}#mermaid-svg-1766168120089-ln5r07oau div.mermaidTooltip{position:absolute;text-align:center;max-width:200px;padding:2px;font-family:"trebuchet ms",verdana,arial,sans-serif;font-size:12px;background:#264f78;border:1px solid #454545;border-radius:2px;pointer-events:none;z-index:100;}#mermaid-svg-1766168120089-ln5r07oau .flowchartTitleText{text-anchor:middle;font-size:18px;fill:#cccccc;}#mermaid-svg-1766168120089-ln5r07oau :root{--mermaid-font-family:"trebuchet ms",verdana,arial,sans-serif;}</style><g><marker orient="auto" markerHeight="12" markerWidth="12" markerUnits="userSpaceOnUse" refY="5" refX="6" viewBox="0 0 10 10" class="marker flowchart" id="mermaid-svg-1766168120089-ln5r07oau_flowchart-pointEnd"><path style="stroke-width: 1; stroke-dasharray: 1, 0;" class="arrowMarkerPath" d="M 0 0 L 10 5 L 0 10 z"/></marker><marker orient="auto" markerHeight="12" markerWidth="12" markerUnits="userSpaceOnUse" refY="5" refX="4.5" viewBox="0 0 10 10" class="marker flowchart" id="mermaid-svg-1766168120089-ln5r07oau_flowchart-pointStart"><path style="stroke-width: 1; stroke-dasharray: 1, 0;" class="arrowMarkerPath" d="M 0 5 L 10 10 L 10 0 z"/></marker><marker orient="auto" markerHeight="11" markerWidth="11" markerUnits="userSpaceOnUse" refY="5" refX="11" viewBox="0 0 10 10" class="marker flowchart" id="mermaid-svg-1766168120089-ln5r07oau_flowchart-circleEnd"><circle style="stroke-width: 1; stroke-dasharray: 1, 0;" class="arrowMarkerPath" r="5" cy="5" cx="5"/></marker><marker orient="auto" markerHeight="11" markerWidth="11" markerUnits="userSpaceOnUse" refY="5" refX="-1" viewBox="0 0 10 10" class="marker flowchart" id="mermaid-svg-1766168120089-ln5r07oau_flowchart-circleStart"><circle style="stroke-width: 1; stroke-dasharray: 1, 0;" class="arrowMarkerPath" r="5" cy="5" cx="5"/></marker><marker orient="auto" markerHeight="11" markerWidth="11" markerUnits="userSpaceOnUse" refY="5.2" refX="12" viewBox="0 0 11 11" class="marker cross flowchart" id="mermaid-svg-1766168120089-ln5r07oau_flowchart-crossEnd"><path style="stroke-width: 2; stroke-dasharray: 1, 0;" class="arrowMarkerPath" d="M 1,1 l 9,9 M 10,1 l -9,9"/></marker><marker orient="auto" markerHeight="11" markerWidth="11" markerUnits="userSpaceOnUse" refY="5.2" refX="-1" viewBox="0 0 11 11" class="marker cross flowchart" id="mermaid-svg-1766168120089-ln5r07oau_flowchart-crossStart"><path style="stroke-width: 2; stroke-dasharray: 1, 0;" class="arrowMarkerPath" d="M 1,1 l 9,9 M 10,1 l -9,9"/></marker><g class="root"><g class="clusters"/><g class="edgePaths"/><g class="edgeLabels"/><g class="nodes"><g transform="translate(-7.5, 303.1015625)" class="root"><g class="clusters"><g id="Time_Window" class="cluster default flowchart-label"><rect height="252" width="287.890625" y="8" x="8" ry="0" rx="0" style=""/><g transform="translate(151.9453125, 8)" class="cluster-label"><text style=""><tspan class="row" x="0" dy="1em" xml:space="preserve">Time Window Computation</tspan></text></g></g></g><g class="edgePaths"><path marker-end="url(#mermaid-svg-1766168120089-ln5r07oau_flowchart-pointEnd)" style="fill:none;" class="edge-thickness-normal edge-pattern-solid flowchart-link LS-P LE-Q" id="L-P-Q-0" d="M151.945,67L151.945,71.167C151.945,75.333,151.945,83.667,151.945,91.117C151.945,98.567,151.945,105.133,151.945,108.417L151.945,111.7"/><path marker-end="url(#mermaid-svg-1766168120089-ln5r07oau_flowchart-pointEnd)" style="fill:none;" class="edge-thickness-normal edge-pattern-solid flowchart-link LS-Q LE-R" id="L-Q-R-0" d="M151.945,151L151.945,155.167C151.945,159.333,151.945,167.667,151.945,175.117C151.945,182.567,151.945,189.133,151.945,192.417L151.945,195.7"/></g><g class="edgeLabels"><g class="edgeLabel"><g transform="translate(0, 0)" class="label"><rect height="0" width="0" ry="0" rx="0"/><text style=""><tspan class="row" x="0" dy="1em" xml:space="preserve"/></text></g></g><g class="edgeLabel"><g transform="translate(0, 0)" class="label"><rect height="0" width="0" ry="0" rx="0"/><text style=""><tspan class="row" x="0" dy="1em" xml:space="preserve"/></text></g></g></g><g class="nodes"><g transform="translate(151.9453125, 134)" id="flowchart-Q-8534" class="node default default flowchart-label"><rect height="34" width="217.890625" y="-17" x="-108.9453125" ry="0" rx="0" style="" class="basic label-container"/><g transform="translate(0, -9.5)" style="" class="label"><rect/><text style=""><tspan class="row" x="0" dy="1em" xml:space="preserve">/ (timeIntervalHours * 3600)</tspan></text></g></g><g transform="translate(151.9453125, 50)" id="flowchart-P-8533" class="node default default flowchart-label"><rect height="34" width="135.421875" y="-17" x="-67.7109375" ry="0" rx="0" style="" class="basic label-container"/><g transform="translate(0, -9.5)" style="" class="label"><rect/><text style=""><tspan class="row" x="0" dy="1em" xml:space="preserve">block.timestamp</tspan></text></g></g><g transform="translate(151.9453125, 218)" id="flowchart-R-8536" class="node default default flowchart-label"><rect height="34" width="141.375" y="-17" x="-70.6875" ry="0" rx="0" style="" class="basic label-container"/><g transform="translate(0, -9.5)" style="" class="label"><rect/><text style=""><tspan class="row" x="0" dy="1em" xml:space="preserve">uint256 windowId</tspan></text></g></g></g></g><g transform="translate(330.390625, 303.1015625)" class="root"><g class="clusters"><g id="Usage_Key" class="cluster default flowchart-label"><rect height="252" width="938.25" y="8" x="8" ry="0" rx="0" style=""/><g transform="translate(477.125, 8)" class="cluster-label"><text style=""><tspan class="row" x="0" dy="1em" xml:space="preserve">Usage Key Computation</tspan></text></g></g></g><g class="edgePaths"><path marker-end="url(#mermaid-svg-1766168120089-ln5r07oau_flowchart-pointEnd)" style="fill:none;" class="edge-thickness-normal edge-pattern-solid flowchart-link LS-J LE-K" id="L-J-K-0" d="M78.484,67L78.484,71.167C78.484,75.333,78.484,83.667,124.119,93.754C169.755,103.842,261.025,115.683,306.66,121.604L352.295,127.525"/><path marker-end="url(#mermaid-svg-1766168120089-ln5r07oau_flowchart-pointEnd)" style="fill:none;" class="edge-thickness-normal edge-pattern-solid flowchart-link LS-L LE-K" id="L-L-K-0" d="M267.617,67L267.617,71.167C267.617,75.333,267.617,83.667,281.763,92.248C295.909,100.829,324.2,109.658,338.346,114.073L352.491,118.487"/><path marker-end="url(#mermaid-svg-1766168120089-ln5r07oau_flowchart-pointEnd)" style="fill:none;" class="edge-thickness-normal edge-pattern-solid flowchart-link LS-M LE-K" id="L-M-K-0" d="M536.781,67L536.781,71.167C536.781,75.333,536.781,83.667,522.636,92.248C508.49,100.829,480.198,109.658,466.053,114.073L451.907,118.487"/><path marker-end="url(#mermaid-svg-1766168120089-ln5r07oau_flowchart-pointEnd)" style="fill:none;" class="edge-thickness-normal edge-pattern-solid flowchart-link LS-N LE-K" id="L-N-K-0" d="M806.773,67L806.773,71.167C806.773,75.333,806.773,83.667,747.664,93.97C688.555,104.273,570.337,116.545,511.228,122.681L452.119,128.818"/><path marker-end="url(#mermaid-svg-1766168120089-ln5r07oau_flowchart-pointEnd)" style="fill:none;" class="edge-thickness-normal edge-pattern-solid flowchart-link LS-K LE-O" id="L-K-O-0" d="M402.199,151L402.199,155.167C402.199,159.333,402.199,167.667,402.199,175.117C402.199,182.567,402.199,189.133,402.199,192.417L402.199,195.7"/></g><g class="edgeLabels"><g class="edgeLabel"><g transform="translate(0, 0)" class="label"><rect height="0" width="0" ry="0" rx="0"/><text style=""><tspan class="row" x="0" dy="1em" xml:space="preserve"/></text></g></g><g class="edgeLabel"><g transform="translate(0, 0)" class="label"><rect height="0" width="0" ry="0" rx="0"/><text style=""><tspan class="row" x="0" dy="1em" xml:space="preserve"/></text></g></g><g class="edgeLabel"><g transform="translate(0, 0)" class="label"><rect height="0" width="0" ry="0" rx="0"/><text style=""><tspan class="row" x="0" dy="1em" xml:space="preserve"/></text></g></g><g class="edgeLabel"><g transform="translate(0, 0)" class="label"><rect height="0" width="0" ry="0" rx="0"/><text style=""><tspan class="row" x="0" dy="1em" xml:space="preserve"/></text></g></g><g class="edgeLabel"><g transform="translate(0, 0)" class="label"><rect height="0" width="0" ry="0" rx="0"/><text style=""><tspan class="row" x="0" dy="1em" xml:space="preserve"/></text></g></g></g><g class="nodes"><g transform="translate(402.19921875, 134)" id="flowchart-K-8524" class="node default default flowchart-label"><rect height="34" width="89.296875" y="-17" x="-44.6484375" ry="0" rx="0" style="" class="basic label-container"/><g transform="translate(0, -9.5)" style="" class="label"><rect/><text style=""><tspan class="row" x="0" dy="1em" xml:space="preserve">keccak256</tspan></text></g></g><g transform="translate(78.484375, 50)" id="flowchart-J-8523" class="node default default flowchart-label"><rect height="34" width="70.96875" y="-17" x="-35.484375" ry="0" rx="0" style="" class="basic label-container"/><g transform="translate(0, -9.5)" style="" class="label"><rect/><text style=""><tspan class="row" x="0" dy="1em" xml:space="preserve">policyId</tspan></text></g></g><g transform="translate(267.6171875, 50)" id="flowchart-L-8525" class="node default default flowchart-label"><rect height="34" width="207.296875" y="-17" x="-103.6484375" ry="0" rx="0" style="" class="basic label-container"/><g transform="translate(0, -9.5)" style="" class="label"><rect/><text style=""><tspan class="row" x="0" dy="1em" xml:space="preserve">account (or 0 if aggregate)</tspan></text></g></g><g transform="translate(536.78125, 50)" id="flowchart-M-8527" class="node default default flowchart-label"><rect height="34" width="231.03125" y="-17" x="-115.515625" ry="0" rx="0" style="" class="basic label-container"/><g transform="translate(0, -9.5)" style="" class="label"><rect/><text style=""><tspan class="row" x="0" dy="1em" xml:space="preserve">destination (or 0 if aggregate)</tspan></text></g></g><g transform="translate(806.7734375, 50)" id="flowchart-N-8529" class="node default default flowchart-label"><rect height="34" width="208.953125" y="-17" x="-104.4765625" ry="0" rx="0" style="" class="basic label-container"/><g transform="translate(0, -9.5)" style="" class="label"><rect/><text style=""><tspan class="row" x="0" dy="1em" xml:space="preserve">initiator (or 0 if aggregate)</tspan></text></g></g><g transform="translate(402.19921875, 218)" id="flowchart-O-8532" class="node default default flowchart-label"><rect height="34" width="140.671875" y="-17" x="-70.3359375" ry="0" rx="0" style="" class="basic label-container"/><g transform="translate(0, -9.5)" style="" class="label"><rect/><text style=""><tspan class="row" x="0" dy="1em" xml:space="preserve">bytes32 usageKey</tspan></text></g></g></g></g><g transform="translate(1318.640625, -8)" class="root"><g class="clusters"><g id="Transaction_Flow" class="cluster default flowchart-label"><rect height="874.203125" width="540.10546875" y="8" x="8" ry="0" rx="0" style=""/><g transform="translate(278.052734375, 8)" class="cluster-label"><text style=""><tspan class="row" x="0" dy="1em" xml:space="preserve">Transaction/Signature Flow</tspan></text></g></g></g><g class="edgePaths"><path marker-end="url(#mermaid-svg-1766168120089-ln5r07oau_flowchart-pointEnd)" style="fill:none;" class="edge-thickness-normal edge-pattern-solid flowchart-link LS-A LE-B" id="L-A-B-0" d="M255.109,67L255.109,71.167C255.109,75.333,255.109,83.667,255.109,91.117C255.109,98.567,255.109,105.133,255.109,108.417L255.109,111.7"/><path marker-end="url(#mermaid-svg-1766168120089-ln5r07oau_flowchart-pointEnd)" style="fill:none;" class="edge-thickness-normal edge-pattern-solid flowchart-link LS-B LE-C" id="L-B-C-0" d="M255.109,151L255.109,155.167C255.109,159.333,255.109,167.667,255.175,175.2C255.241,182.734,255.373,189.467,255.439,192.834L255.505,196.201"/><path marker-end="url(#mermaid-svg-1766168120089-ln5r07oau_flowchart-pointEnd)" style="fill:none;" class="edge-thickness-normal edge-pattern-solid flowchart-link LS-C LE-D" id="L-C-D-0" d="M203.803,328.897L184.002,343.198C164.202,357.499,124.601,386.101,104.8,408.985C85,431.87,85,449.036,85,464.62C85,480.203,85,494.203,85,508.203C85,522.203,85,536.203,85,551.786C85,567.37,85,584.536,85,601.703C85,618.87,85,636.036,85,653.203C85,670.37,85,687.536,85,704.703C85,721.87,85,739.036,85,754.62C85,770.203,85,784.203,106.49,796.509C127.98,808.815,170.96,819.427,192.45,824.733L213.94,830.039"/><path marker-end="url(#mermaid-svg-1766168120089-ln5r07oau_flowchart-pointEnd)" style="fill:none;" class="edge-thickness-normal edge-pattern-solid flowchart-link LS-C LE-E" id="L-C-E-0" d="M284.733,351.58L289.756,362.1C294.779,372.621,304.825,393.662,309.848,409.049C314.871,424.436,314.871,434.17,314.871,439.036L314.871,443.903"/><path marker-end="url(#mermaid-svg-1766168120089-ln5r07oau_flowchart-pointEnd)" style="fill:none;" class="edge-thickness-normal edge-pattern-solid flowchart-link LS-E LE-F" id="L-E-F-0" d="M314.871,483.203L314.871,487.37C314.871,491.536,314.871,499.87,314.871,507.32C314.871,514.77,314.871,521.336,314.871,524.62L314.871,527.903"/><path marker-end="url(#mermaid-svg-1766168120089-ln5r07oau_flowchart-pointEnd)" style="fill:none;" class="edge-thickness-normal edge-pattern-solid flowchart-link LS-F LE-G" id="L-F-G-0" d="M314.871,567.203L314.871,572.953C314.871,578.703,314.871,590.203,314.871,600.82C314.871,611.436,314.871,621.17,314.871,626.036L314.871,630.903"/><path marker-end="url(#mermaid-svg-1766168120089-ln5r07oau_flowchart-pointEnd)" style="fill:none;" class="edge-thickness-normal edge-pattern-solid flowchart-link LS-G LE-H" id="L-G-H-0" d="M351.297,670.203L363.617,675.953C375.937,681.703,400.578,693.203,412.898,703.82C425.219,714.436,425.219,724.17,425.219,729.036L425.219,733.903"/><path marker-end="url(#mermaid-svg-1766168120089-ln5r07oau_flowchart-pointEnd)" style="fill:none;" class="edge-thickness-normal edge-pattern-solid flowchart-link LS-H LE-D" id="L-H-D-0" d="M425.219,773.203L425.219,777.37C425.219,781.536,425.219,789.87,403.729,799.342C382.239,808.815,339.258,819.427,317.768,824.733L296.278,830.039"/><path marker-end="url(#mermaid-svg-1766168120089-ln5r07oau_flowchart-pointEnd)" style="fill:none;" class="edge-thickness-normal edge-pattern-solid flowchart-link LS-G LE-I" id="L-G-I-0" d="M278.446,670.203L266.125,675.953C253.805,681.703,229.164,693.203,216.844,703.82C204.523,714.436,204.523,724.17,204.523,729.036L204.523,733.903"/></g><g class="edgeLabels"><g class="edgeLabel"><g transform="translate(0, 0)" class="label"><rect height="0" width="0" ry="0" rx="0"/><text style=""><tspan class="row" x="0" dy="1em" xml:space="preserve"/></text></g></g><g class="edgeLabel"><g transform="translate(0, 0)" class="label"><rect height="0" width="0" ry="0" rx="0"/><text style=""><tspan class="row" x="0" dy="1em" xml:space="preserve"/></text></g></g><g transform="translate(85, 601.703125)" class="edgeLabel"><g transform="translate(-9.3984375, -9.5)" class="label"><rect height="19.16550636291504" width="18.803001403808594" ry="0" rx="0"/><text style=""><tspan class="row" x="0" dy="1em" xml:space="preserve">No</tspan></text></g></g><g transform="translate(314.87109375, 414.703125)" class="edgeLabel"><g transform="translate(-11.328125, -9.5)" class="label"><rect height="19.16550636291504" width="22.648710250854492" ry="0" rx="0"/><text style=""><tspan class="row" x="0" dy="1em" xml:space="preserve">Yes</tspan></text></g></g><g class="edgeLabel"><g transform="translate(0, 0)" class="label"><rect height="0" width="0" ry="0" rx="0"/><text style=""><tspan class="row" x="0" dy="1em" xml:space="preserve"/></text></g></g><g class="edgeLabel"><g transform="translate(0, 0)" class="label"><rect height="0" width="0" ry="0" rx="0"/><text style=""><tspan class="row" x="0" dy="1em" xml:space="preserve"/></text></g></g><g transform="translate(425.21875, 704.703125)" class="edgeLabel"><g transform="translate(-42.328125, -9.5)" class="label"><rect height="19.16550636291504" width="84.65290832519531" ry="0" rx="0"/><text style=""><tspan class="row" x="0" dy="1em" xml:space="preserve">Under Limit</tspan></text></g></g><g class="edgeLabel"><g transform="translate(0, 0)" class="label"><rect height="0" width="0" ry="0" rx="0"/><text style=""><tspan class="row" x="0" dy="1em" xml:space="preserve"/></text></g></g><g transform="translate(204.5234375, 704.703125)" class="edgeLabel"><g transform="translate(-37.6171875, -9.5)" class="label"><rect height="19.16550636291504" width="75.22776794433594" ry="0" rx="0"/><text style=""><tspan class="row" x="0" dy="1em" xml:space="preserve">Over Limit</tspan></text></g></g></g><g class="nodes"><g transform="translate(255.109375, 134)" id="flowchart-B-8506" class="node default default flowchart-label"><rect height="34" width="133.0625" y="-17" x="-66.53125" ry="0" rx="0" style="" class="basic label-container"/><g transform="translate(0, -9.5)" style="" class="label"><rect/><text style=""><tspan class="row" x="0" dy="1em" xml:space="preserve">Policy Validation</tspan></text></g></g><g transform="translate(255.109375, 50)" id="flowchart-A-8505" class="node default default flowchart-label"><rect height="34" width="175.28125" y="-17" x="-87.640625" ry="0" rx="0" style="" class="basic label-container"/><g transform="translate(0, -9.5)" style="" class="label"><rect/><text style=""><tspan class="row" x="0" dy="1em" xml:space="preserve">Transaction Submitted</tspan></text></g></g><g transform="translate(255.109375, 290.6015625)" id="flowchart-C-8508" class="node default default flowchart-label"><polygon style="" transform="translate(-89.6015625,89.6015625)" class="label-container" points="89.6015625,0 179.203125,-89.6015625 89.6015625,-179.203125 0,-89.6015625"/><g transform="translate(0, -9.5)" style="" class="label"><rect/><text style=""><tspan class="row" x="0" dy="1em" xml:space="preserve">Time-Based Limit?</tspan></text></g></g><g transform="translate(255.109375, 840.203125)" id="flowchart-D-8510" class="node default default flowchart-label"><rect height="34" width="72.046875" y="-17" x="-36.0234375" ry="0" rx="0" style="" class="basic label-container"/><g transform="translate(0, -9.5)" style="" class="label"><rect/><text style=""><tspan class="row" x="0" dy="1em" xml:space="preserve">Execute</tspan></text></g></g><g transform="translate(314.87109375, 466.203125)" id="flowchart-E-8512" class="node default default flowchart-label"><rect height="34" width="156.15625" y="-17" x="-78.078125" ry="0" rx="0" style="" class="basic label-container"/><g transform="translate(0, -9.5)" style="" class="label"><rect/><text style=""><tspan class="row" x="0" dy="1em" xml:space="preserve">Compute Usage Key</tspan></text></g></g><g transform="translate(314.87109375, 550.203125)" id="flowchart-F-8514" class="node default default flowchart-label"><rect height="34" width="161.21875" y="-17" x="-80.609375" ry="0" rx="0" style="" class="basic label-container"/><g transform="translate(0, -9.5)" style="" class="label"><rect/><text style=""><tspan class="row" x="0" dy="1em" xml:space="preserve">Get Current Window</tspan></text></g></g><g transform="translate(314.87109375, 653.203125)" id="flowchart-G-8516" class="node default default flowchart-label"><rect height="34" width="165.671875" y="-17" x="-82.8359375" ry="0" rx="0" style="" class="basic label-container"/><g transform="translate(0, -9.5)" style="" class="label"><rect/><text style=""><tspan class="row" x="0" dy="1em" xml:space="preserve">Check Usage vs Limit</tspan></text></g></g><g transform="translate(425.21875, 756.203125)" id="flowchart-H-8518" class="node default default flowchart-label"><rect height="34" width="172.34375" y="-17" x="-86.171875" ry="0" rx="0" style="" class="basic label-container"/><g transform="translate(0, -9.5)" style="" class="label"><rect/><text style=""><tspan class="row" x="0" dy="1em" xml:space="preserve">Update Usage Storage</tspan></text></g></g><g transform="translate(204.5234375, 756.203125)" id="flowchart-I-8522" class="node default default flowchart-label"><rect height="34" width="169.046875" y="-17" x="-84.5234375" ry="0" rx="0" style="" class="basic label-container"/><g transform="translate(0, -9.5)" style="" class="label"><rect/><text style=""><tspan class="row" x="0" dy="1em" xml:space="preserve">Policy Does Not Apply</tspan></text></g></g></g></g></g></g></g></svg>